<svg xmlns="http://www.w3.org/2000/svg" class="vidar-components" viewBox="0 0 960 3442" width="960" height="3442" role="img" aria-labelledby="vidar-components-title vidar-components-desc">
<title id="vidar-components-title">Vidar components</title>
<desc id="vidar-components-desc">UML component diagram of Vidar's modules, their interfaces and the external services they call.</desc>
<style>
.vidar-components text { font-family: -apple-system, BlinkMacSystemFont, "Segoe UI", Helvetica, Arial, sans-serif; font-size: 14px; fill: #1f2328; }
.vidar-components .m { font-family: ui-monospace, SFMono-Regular, Menlo, Consolas, "Liberation Mono", monospace; font-size: 13px; }
.vidar-components .mb { font-family: ui-monospace, SFMono-Regular, Menlo, Consolas, "Liberation Mono", monospace; font-size: 14px; font-weight: 700; }
.vidar-components .sb { font-weight: 600; }
.vidar-components .h { font-size: 16px; font-weight: 600; }
.vidar-components .ti { font-size: 22px; font-weight: 600; }
.vidar-components .st { fill: #59636e; }
.vidar-components .it { font-style: italic; }
.vidar-components .bg { fill: #ffffff; stroke: #d1d9e0; stroke-width: 1; }
.vidar-components .ko { fill: #ffffff; }
.vidar-components .box { fill: #f6f8fa; stroke: #6e7781; stroke-width: 1.2; }
.vidar-components .hdr { fill: #eaeef2; }
.vidar-components .tbl { fill: #d6efea; }
.vidar-components .cls { fill: #dce7f7; }
.vidar-components .ext { fill: #f5e6c8; }
.vidar-components .proc { fill: #e7e0f6; }
.vidar-components .note { fill: #faf2cf; stroke: #6e7781; stroke-width: 1; }
.vidar-components .sep { stroke: #6e7781; stroke-width: 1; }
.vidar-components .ln { stroke: #59636e; stroke-width: 1.4; fill: none; }
.vidar-components .dash { stroke-dasharray: 6 4; }
.vidar-components .frame { fill: none; stroke: #8c959f; stroke-width: 1.3; stroke-dasharray: 8 5; }
.vidar-components .sframe { fill: none; stroke: #8c959f; stroke-width: 1.3; }
.vidar-components .life { stroke: #8c959f; stroke-width: 1.2; stroke-dasharray: 5 5; fill: none; }
.vidar-components .act { fill: #eaeef2; stroke: #59636e; stroke-width: 1; }
.vidar-components .mkf { fill: #59636e; stroke: #59636e; stroke-width: 1; }
.vidar-components .mko { fill: none; stroke: #59636e; stroke-width: 1.4; }
.vidar-components .mkh { fill: #ffffff; stroke: #59636e; stroke-width: 1.4; }
.vidar-components .ball { fill: #ffffff; stroke: #59636e; stroke-width: 1.4; }
.vidar-components .dot { fill: #59636e; }
.vidar-components .icon { fill: #f6f8fa; stroke: #59636e; stroke-width: 1.1; }
@media (prefers-color-scheme: dark) {
.vidar-components text { font-family: -apple-system, BlinkMacSystemFont, "Segoe UI", Helvetica, Arial, sans-serif; font-size: 14px; fill: #e6edf3; }
.vidar-components .m { font-family: ui-monospace, SFMono-Regular, Menlo, Consolas, "Liberation Mono", monospace; font-size: 13px; }
.vidar-components .mb { font-family: ui-monospace, SFMono-Regular, Menlo, Consolas, "Liberation Mono", monospace; font-size: 14px; font-weight: 700; }
.vidar-components .sb { font-weight: 600; }
.vidar-components .h { font-size: 16px; font-weight: 600; }
.vidar-components .ti { font-size: 22px; font-weight: 600; }
.vidar-components .st { fill: #9198a1; }
.vidar-components .it { font-style: italic; }
.vidar-components .bg { fill: #0d1117; stroke: #3d444d; stroke-width: 1; }
.vidar-components .ko { fill: #0d1117; }
.vidar-components .box { fill: #151b23; stroke: #8b949e; stroke-width: 1.2; }
.vidar-components .hdr { fill: #212830; }
.vidar-components .tbl { fill: #12332e; }
.vidar-components .cls { fill: #1a2940; }
.vidar-components .ext { fill: #3a2d13; }
.vidar-components .proc { fill: #2a2342; }
.vidar-components .note { fill: #332d13; stroke: #8b949e; stroke-width: 1; }
.vidar-components .sep { stroke: #8b949e; stroke-width: 1; }
.vidar-components .ln { stroke: #9198a1; stroke-width: 1.4; fill: none; }
.vidar-components .dash { stroke-dasharray: 6 4; }
.vidar-components .frame { fill: none; stroke: #6e7681; stroke-width: 1.3; stroke-dasharray: 8 5; }
.vidar-components .sframe { fill: none; stroke: #6e7681; stroke-width: 1.3; }
.vidar-components .life { stroke: #6e7681; stroke-width: 1.2; stroke-dasharray: 5 5; fill: none; }
.vidar-components .act { fill: #212830; stroke: #9198a1; stroke-width: 1; }
.vidar-components .mkf { fill: #9198a1; stroke: #9198a1; stroke-width: 1; }
.vidar-components .mko { fill: none; stroke: #9198a1; stroke-width: 1.4; }
.vidar-components .mkh { fill: #0d1117; stroke: #9198a1; stroke-width: 1.4; }
.vidar-components .ball { fill: #0d1117; stroke: #9198a1; stroke-width: 1.4; }
.vidar-components .dot { fill: #9198a1; }
.vidar-components .icon { fill: #151b23; stroke: #9198a1; stroke-width: 1.1; }
}
</style>
<defs>
<marker id="vidar-components-tri" viewBox="0 0 16 16" markerWidth="16" markerHeight="16" refX="15" refY="8" orient="auto" markerUnits="userSpaceOnUse"><path class="mkh" d="M1,1 L15,8 L1,15 Z"/></marker>
<marker id="vidar-components-open" viewBox="0 0 14 14" markerWidth="14" markerHeight="14" refX="13" refY="7" orient="auto-start-reverse" markerUnits="userSpaceOnUse"><path class="mko" d="M1,1 L13,7 L1,13"/></marker>
<marker id="vidar-components-filled" viewBox="0 0 14 14" markerWidth="14" markerHeight="14" refX="13" refY="7" orient="auto" markerUnits="userSpaceOnUse"><path class="mkf" d="M1,1 L13,7 L1,13 Z"/></marker>
<marker id="vidar-components-diamond" viewBox="0 0 18 12" markerWidth="18" markerHeight="12" refX="1" refY="6" orient="auto" markerUnits="userSpaceOnUse"><path class="mkf" d="M1,6 L9,1 L17,6 L9,11 Z"/></marker>
</defs>
<rect class="bg" x="0.5" y="0.5" width="959" height="3441" rx="14"/>
<text x="30" y="44" class="ti" xml:space="preserve">Vidar — components</text>
<text x="30" y="70" class="st" xml:space="preserve">The modules of src/ as components, all in one process (uvicorn src.main:app). «provided» and «required»</text>
<text x="30" y="90" class="st" xml:space="preserve">compartments name the functions that cross each edge; the arrows show which component uses which.</text>
<rect class="box" x="70" y="126" width="380" height="190"/>
<rect class="hdr ext" x="70.6" y="126.6" width="378.8" height="57.4"/>
<text x="82" y="151" class="st" xml:space="preserve">«external»</text>
<text x="82" y="171" class="sb" xml:space="preserve">Operator's browser</text>
<path class="icon" d="M422,154 A6,6 0 0 1 422,142 A8,8 0 0 1 436,140 A6,6 0 0 1 440,154 Z"/>
<line class="sep" x1="70" y1="184" x2="450" y2="184"/>
<text x="82" y="205" xml:space="preserve">reaches the dashboard only through</text>
<text x="82" y="225" class="m" xml:space="preserve">ssh -L 8080:localhost:8080 &lt;user&gt;@&lt;host&gt;</text>
<text x="82" y="245" class="st" xml:space="preserve">there is no login; the tunnel is access control</text>
<rect class="box" x="510" y="126" width="410" height="90"/>
<rect class="hdr ext" x="510.6" y="126.6" width="408.8" height="57.4"/>
<text x="522" y="151" class="st" xml:space="preserve">«external»</text>
<text x="522" y="171" class="sb" xml:space="preserve">unpkg.com</text>
<path class="icon" d="M892,154 A6,6 0 0 1 892,142 A8,8 0 0 1 906,140 A6,6 0 0 1 910,154 Z"/>
<line class="sep" x1="510" y1="184" x2="920" y2="184"/>
<text x="522" y="205" class="m" xml:space="preserve">leaflet 1.9.4 · leaflet.markercluster 1.5.3</text>
<rect class="box" x="510" y="228" width="410" height="90"/>
<rect class="hdr ext" x="510.6" y="228.6" width="408.8" height="57.4"/>
<text x="522" y="253" class="st" xml:space="preserve">«external»</text>
<text x="522" y="273" class="sb" xml:space="preserve">{s}.basemaps.cartocdn.com</text>
<path class="icon" d="M892,256 A6,6 0 0 1 892,244 A8,8 0 0 1 906,242 A6,6 0 0 1 910,256 Z"/>
<line class="sep" x1="510" y1="286" x2="920" y2="286"/>
<text x="522" y="307" class="m" xml:space="preserve">map tiles; key from CARTO_API_KEY</text>
<path class="ln" d="M450,171 L510,171" marker-end="url(#vidar-components-open)"/>
<path class="ln" d="M450,273 L510,273" marker-end="url(#vidar-components-open)"/>
<rect class="box" x="60" y="388" width="860" height="334"/>
<rect class="hdr proc" x="60.6" y="388.6" width="858.8" height="57.4"/>
<text x="72" y="413" class="st" xml:space="preserve">«component»  src/main.py</text>
<text x="72" y="433" class="mb" xml:space="preserve">main</text>
<rect class="icon" x="894" y="398" width="16" height="20"/>
<rect class="icon" x="888" y="402" width="11" height="4"/>
<rect class="icon" x="888" y="410" width="11" height="4"/>
<line class="sep" x1="60" y1="446" x2="920" y2="446"/>
<text x="72" y="467" class="st it" xml:space="preserve">«provided»</text>
<text x="72" y="487" class="m" xml:space="preserve">HTTP :8080 · app = FastAPI(lifespan=lifespan, docs_url=None, redoc_url=None)</text>
<line class="sep" x1="60" y1="498" x2="920" y2="498"/>
<text x="72" y="519" class="m" xml:space="preserve">lifespan(): init_db() · _seed_demo() if DEMO_MODE · _init_async_globals() · await warm_caches()</text>
<text x="72" y="539" class="m" xml:space="preserve">tasks: _backfill_task · tail_log · enrichment_worker · _rdns_backfill_task ·</text>
<text x="72" y="559" class="m" xml:space="preserve">       _reclassify_task · _retention_task · _backup_task</text>
<text x="72" y="579" class="m" xml:space="preserve">middleware, outermost first: refuse_unknown_hosts → block_cross_origin_writes →</text>
<text x="72" y="599" class="m" xml:space="preserve">       security_headers → rate_limit_export</text>
<text x="72" y="619" class="m" xml:space="preserve">own endpoints: GET /health · GET /favicon.ico · mount /static</text>
<line class="sep" x1="60" y1="630" x2="920" y2="630"/>
<text x="72" y="651" class="st it" xml:space="preserve">«required»</text>
<text x="72" y="671" class="m" xml:space="preserve">queries: backfill_visitor_classes · force_reclassify_all · reclassify_stale_ips ·</text>
<text x="72" y="691" class="m" xml:space="preserve">       get_state · set_state · count_visits · the export rate-limit queries</text>
<text x="72" y="711" class="m" xml:space="preserve">db.run_db · db.get_conn · db.init_db · config</text>
<path class="ln" d="M260,388 L260,371"/>
<circle class="ball" cx="260" cy="364" r="7"/>
<path class="ln" d="M260,318 L260,352"/>
<path class="ln" d="M248,364 A12,12 0 0 1 272,364"/>
<text x="278" y="369" class="m" xml:space="preserve">HTTP :8080</text>
<path class="ln dash" d="M60,555 L40,555"/>
<rect class="box" x="70" y="792" width="380" height="90"/>
<rect class="hdr tbl" x="70.6" y="792.6" width="378.8" height="57.4"/>
<text x="82" y="817" class="st" xml:space="preserve">«artifact»</text>
<text x="82" y="837" class="mb" xml:space="preserve">/logs/access.log</text>
<path class="icon" d="M420,802 L432,802 L438,808 L438,824 L420,824 Z"/>
<path class="ln" d="M432,802 L432,808 L438,808"/>
<line class="sep" x1="70" y1="850" x2="450" y2="850"/>
<text x="82" y="871" xml:space="preserve">nginx JSON access log, read-only mount</text>
<rect class="box" x="70" y="932" width="380" height="214"/>
<rect class="hdr proc" x="70.6" y="932.6" width="378.8" height="57.4"/>
<text x="82" y="957" class="st" xml:space="preserve">«component»  src/log_processor.py</text>
<text x="82" y="977" class="mb" xml:space="preserve">log_processor</text>
<rect class="icon" x="424" y="942" width="16" height="20"/>
<rect class="icon" x="418" y="946" width="11" height="4"/>
<rect class="icon" x="418" y="954" width="11" height="4"/>
<line class="sep" x1="70" y1="990" x2="450" y2="990"/>
<text x="82" y="1011" class="st it" xml:space="preserve">«provided»</text>
<text x="82" y="1031" class="m" xml:space="preserve">tail_log(new_ips_queue)</text>
<line class="sep" x1="70" y1="1042" x2="450" y2="1042"/>
<text x="82" y="1063" class="m" xml:space="preserve">parse_log_line · skip_reason · process_entry</text>
<line class="sep" x1="70" y1="1074" x2="450" y2="1074"/>
<text x="82" y="1095" class="st it" xml:space="preserve">«required»</text>
<text x="82" y="1115" class="m" xml:space="preserve">queries: insert_visit · get_state · set_state</text>
<text x="82" y="1135" class="m" xml:space="preserve">db.run_db · models · ua_parser</text>
<path class="ln" d="M260,932 L260,882" marker-end="url(#vidar-components-open)"/>
<text x="274" y="914" class="st" xml:space="preserve">reads</text>
<path class="ln" d="M260,1146 L260,1216" marker-end="url(#vidar-components-open)"/>
<text x="274" y="1176" class="m" xml:space="preserve">new_ips_queue</text>
<text x="274" y="1196" class="st" xml:space="preserve">(asyncio.Queue)</text>
<rect class="box" x="70" y="1216" width="380" height="274"/>
<rect class="hdr proc" x="70.6" y="1216.6" width="378.8" height="57.4"/>
<text x="82" y="1241" class="st" xml:space="preserve">«component»  src/enricher.py</text>
<text x="82" y="1261" class="mb" xml:space="preserve">enricher</text>
<rect class="icon" x="424" y="1226" width="16" height="20"/>
<rect class="icon" x="418" y="1230" width="11" height="4"/>
<rect class="icon" x="418" y="1238" width="11" height="4"/>
<line class="sep" x1="70" y1="1274" x2="450" y2="1274"/>
<text x="82" y="1295" class="st it" xml:space="preserve">«provided»</text>
<text x="82" y="1315" class="m" xml:space="preserve">enrichment_worker(new_ips_queue)</text>
<text x="82" y="1335" class="m" xml:space="preserve">reverse_dns_backfill() · snapshot()</text>
<line class="sep" x1="70" y1="1346" x2="450" y2="1346"/>
<text x="82" y="1367" class="m" xml:space="preserve">enrich_batch · _select_batch · _persist_batch</text>
<line class="sep" x1="70" y1="1378" x2="450" y2="1378"/>
<text x="82" y="1399" class="st it" xml:space="preserve">«required»</text>
<text x="82" y="1419" class="m" xml:space="preserve">queries: upsert_ip_intel ·</text>
<text x="82" y="1439" class="m" xml:space="preserve">  set_visitor_class · classify_ip ·</text>
<text x="82" y="1459" class="m" xml:space="preserve">  mark_enrichment_failed · get_stale_ips …</text>
<text x="82" y="1479" class="m" xml:space="preserve">db.run_db · httpx.AsyncClient</text>
<rect class="box" x="70" y="1550" width="186" height="110"/>
<rect class="hdr ext" x="70.6" y="1550.6" width="184.8" height="57.4"/>
<text x="82" y="1575" class="st" xml:space="preserve">«external»</text>
<text x="82" y="1595" class="sb" xml:space="preserve">ip-api.com</text>
<line class="sep" x1="70" y1="1608" x2="256" y2="1608"/>
<text x="82" y="1629" class="m" xml:space="preserve">POST /batch</text>
<text x="82" y="1649" class="m" xml:space="preserve">plain HTTP</text>
<rect class="box" x="264" y="1550" width="186" height="110"/>
<rect class="hdr ext" x="264.6" y="1550.6" width="184.8" height="57.4"/>
<text x="276" y="1575" class="st" xml:space="preserve">«external»</text>
<text x="276" y="1595" class="sb" xml:space="preserve">internetdb.shodan.io</text>
<line class="sep" x1="264" y1="1608" x2="450" y2="1608"/>
<text x="276" y="1629" class="m" xml:space="preserve">GET /{ip}</text>
<text x="276" y="1649" class="m" xml:space="preserve">HTTPS</text>
<rect class="box" x="70" y="1700" width="186" height="110"/>
<rect class="hdr ext" x="70.6" y="1700.6" width="184.8" height="57.4"/>
<text x="82" y="1725" class="st" xml:space="preserve">«external»</text>
<text x="82" y="1745" class="sb" xml:space="preserve">check.torproject.org</text>
<line class="sep" x1="70" y1="1758" x2="256" y2="1758"/>
<text x="82" y="1779" class="m" xml:space="preserve">GET /torbulkexitlist</text>
<text x="82" y="1799" class="m" xml:space="preserve">HTTPS · cached 24 h</text>
<rect class="box" x="264" y="1700" width="186" height="110"/>
<rect class="hdr ext" x="264.6" y="1700.6" width="184.8" height="57.4"/>
<text x="276" y="1725" class="st" xml:space="preserve">«external»</text>
<text x="276" y="1745" class="sb" xml:space="preserve">DNS resolver</text>
<line class="sep" x1="264" y1="1758" x2="450" y2="1758"/>
<text x="276" y="1779" class="m" xml:space="preserve">DNSBL + FCrDNS</text>
<text x="276" y="1799" class="m" xml:space="preserve">via to_thread</text>
<path class="ln" d="M260,1490 L260,1680"/>
<path class="ln" d="M163,1528 L357,1528"/>
<circle class="dot" cx="260" cy="1528" r="3"/>
<path class="ln" d="M163,1528 L163,1550" marker-end="url(#vidar-components-open)"/>
<path class="ln" d="M357,1528 L357,1550" marker-end="url(#vidar-components-open)"/>
<path class="ln" d="M163,1680 L357,1680"/>
<circle class="dot" cx="260" cy="1680" r="3"/>
<path class="ln" d="M163,1680 L163,1700" marker-end="url(#vidar-components-open)"/>
<path class="ln" d="M357,1680 L357,1700" marker-end="url(#vidar-components-open)"/>
<rect class="box" x="70" y="1870" width="380" height="254"/>
<rect class="hdr proc" x="70.6" y="1870.6" width="378.8" height="57.4"/>
<text x="82" y="1895" class="st" xml:space="preserve">«component» ×3  src/</text>
<text x="82" y="1915" class="mb" xml:space="preserve">retention · archive · backup</text>
<rect class="icon" x="424" y="1880" width="16" height="20"/>
<rect class="icon" x="418" y="1884" width="11" height="4"/>
<rect class="icon" x="418" y="1892" width="11" height="4"/>
<line class="sep" x1="70" y1="1928" x2="450" y2="1928"/>
<text x="82" y="1949" class="st it" xml:space="preserve">«provided»</text>
<text x="82" y="1969" class="m" xml:space="preserve">run_retention() · run_backup()</text>
<text x="82" y="1989" class="m" xml:space="preserve">sweep_abandoned_temps()</text>
<line class="sep" x1="70" y1="2000" x2="450" y2="2000"/>
<text x="82" y="2021" class="m" xml:space="preserve">archive_month · restore_month · export_month</text>
<text x="82" y="2041" class="m" xml:space="preserve">create_snapshot: VACUUM INTO + gzip · prune</text>
<line class="sep" x1="70" y1="2052" x2="450" y2="2052"/>
<text x="82" y="2073" class="st it" xml:space="preserve">«required»</text>
<text x="82" y="2093" class="m" xml:space="preserve">queries: archive_sql · get_state · set_state</text>
<text x="82" y="2113" class="m" xml:space="preserve">db.get_conn · init_db · vacuum</text>
<rect class="box" x="70" y="2174" width="380" height="110"/>
<rect class="hdr tbl" x="70.6" y="2174.6" width="378.8" height="57.4"/>
<text x="82" y="2199" class="st" xml:space="preserve">«artifact»</text>
<text x="82" y="2219" class="mb" xml:space="preserve">/data/archive, /data/backup</text>
<path class="icon" d="M420,2184 L432,2184 L438,2190 L438,2206 L420,2206 Z"/>
<path class="ln" d="M432,2184 L432,2190 L438,2190"/>
<line class="sep" x1="70" y1="2232" x2="450" y2="2232"/>
<text x="82" y="2253" class="m" xml:space="preserve">archive/YYYY-MM.zip</text>
<text x="82" y="2273" class="m" xml:space="preserve">backup/vidar-YYYY-MM-DD.db.gz</text>
<path class="ln" d="M260,2124 L260,2174" marker-end="url(#vidar-components-open)"/>
<text x="274" y="2154" class="st" xml:space="preserve">writes</text>
<path class="ln dash" d="M40,972 L70,972" marker-end="url(#vidar-components-open)"/>
<circle class="dot" cx="40" cy="972" r="3"/>
<path class="ln dash" d="M40,1256 L70,1256" marker-end="url(#vidar-components-open)"/>
<circle class="dot" cx="40" cy="1256" r="3"/>
<path class="ln dash" d="M40,1910 L70,1910" marker-end="url(#vidar-components-open)"/>
<circle class="dot" cx="40" cy="1910" r="3"/>
<path class="ln dash" d="M450,1002 L470,1002"/>
<circle class="dot" cx="470" cy="1002" r="3"/>
<path class="ln dash" d="M450,1286 L470,1286"/>
<circle class="dot" cx="470" cy="1286" r="3"/>
<path class="ln dash" d="M450,1940 L470,1940"/>
<circle class="dot" cx="470" cy="1940" r="3"/>
<rect class="box" x="510" y="792" width="410" height="314"/>
<rect class="hdr cls" x="510.6" y="792.6" width="408.8" height="57.4"/>
<text x="522" y="817" class="st" xml:space="preserve">«component»  src/routes/</text>
<text x="522" y="837" class="mb" xml:space="preserve">routes</text>
<rect class="icon" x="894" y="802" width="16" height="20"/>
<rect class="icon" x="888" y="806" width="11" height="4"/>
<rect class="icon" x="888" y="814" width="11" height="4"/>
<line class="sep" x1="510" y1="850" x2="920" y2="850"/>
<text x="522" y="871" class="st it" xml:space="preserve">«provided»</text>
<text x="522" y="891" class="m" xml:space="preserve">dashboard.router: 10 page modules</text>
<text x="522" y="911" class="m" xml:space="preserve">api.router: /api/stats, activity, visits,</text>
<text x="522" y="931" class="m" xml:space="preserve">  export, decisions</text>
<line class="sep" x1="510" y1="942" x2="920" y2="942"/>
<text x="522" y="963" class="m" xml:space="preserve">_cache.fetch(work): reads, asyncio.to_thread</text>
<text x="522" y="983" class="m" xml:space="preserve">_cache.write(work): writes, db.run_db</text>
<text x="522" y="1003" class="m" xml:space="preserve">_app.templates: Jinja2Templates</text>
<line class="sep" x1="510" y1="1014" x2="920" y2="1014"/>
<text x="522" y="1035" class="st it" xml:space="preserve">«required»</text>
<text x="522" y="1055" class="m" xml:space="preserve">queries: the page queries</text>
<text x="522" y="1075" class="m" xml:space="preserve">report · families · incidents · sessions</text>
<text x="522" y="1095" class="m" xml:space="preserve">preflight · enricher.snapshot() · db</text>
<path class="ln dash" d="M715,722 L715,792" marker-end="url(#vidar-components-open)"/>
<rect class="box" x="510" y="1166" width="410" height="150"/>
<rect class="hdr cls" x="510.6" y="1166.6" width="408.8" height="57.4"/>
<text x="522" y="1191" class="st" xml:space="preserve">«component»  src/templates/, src/static/</text>
<text x="522" y="1211" class="mb" xml:space="preserve">templates · static</text>
<rect class="icon" x="894" y="1176" width="16" height="20"/>
<rect class="icon" x="888" y="1180" width="11" height="4"/>
<rect class="icon" x="888" y="1188" width="11" height="4"/>
<line class="sep" x1="510" y1="1224" x2="920" y2="1224"/>
<text x="522" y="1245" class="m" xml:space="preserve">templates/*.html · templates/macros/*.html</text>
<text x="522" y="1265" class="m" xml:space="preserve">static/css · static/js · static/img</text>
<text x="522" y="1285" xml:space="preserve">base.html's inline script carries</text>
<text x="522" y="1305" class="m" xml:space="preserve">request.state.csp_nonce</text>
<path class="ln dash" d="M715,1106 L715,1166" marker-end="url(#vidar-components-open)"/>
<rect class="box" x="524" y="1416" width="382" height="90"/>
<rect class="hdr proc" x="524.6" y="1416.6" width="380.8" height="37.4"/>
<text x="536" y="1441" class="mb" xml:space="preserve">sessions.py</text>
<line class="sep" x1="524" y1="1454" x2="906" y2="1454"/>
<text x="536" y="1475" class="m" xml:space="preserve">SESSION_GAP_SECONDS · BEHAVIOURS</text>
<text x="536" y="1495" class="m" xml:space="preserve">behaviour_for(session)</text>
<rect class="box" x="524" y="1518" width="382" height="90"/>
<rect class="hdr proc" x="524.6" y="1518.6" width="380.8" height="37.4"/>
<text x="536" y="1543" class="mb" xml:space="preserve">incidents.py</text>
<line class="sep" x1="524" y1="1556" x2="906" y2="1556"/>
<text x="536" y="1577" class="m" xml:space="preserve">SIGNATURE_PATHS · INCIDENT_GAP_SECONDS</text>
<text x="536" y="1597" class="m" xml:space="preserve">MIN_ADDRESSES · score · score_parts</text>
<rect class="box" x="524" y="1620" width="382" height="70"/>
<rect class="hdr proc" x="524.6" y="1620.6" width="380.8" height="37.4"/>
<text x="536" y="1645" class="mb" xml:space="preserve">families.py</text>
<line class="sep" x1="524" y1="1658" x2="906" y2="1658"/>
<text x="536" y="1679" class="m" xml:space="preserve">explain_paths · unexplained_paths</text>
<rect class="box" x="524" y="1702" width="382" height="90"/>
<rect class="hdr proc" x="524.6" y="1702.6" width="380.8" height="37.4"/>
<text x="536" y="1727" class="mb" xml:space="preserve">report.py, report_text.py</text>
<line class="sep" x1="524" y1="1740" x2="906" y2="1740"/>
<text x="536" y="1761" class="m" xml:space="preserve">build_report · available_months</text>
<text x="536" y="1781" class="m" xml:space="preserve">render_markdown</text>
<rect class="frame" x="510" y="1376" width="410" height="432"/>
<text x="524" y="1402" class="st" xml:space="preserve">«package» derived on read, never stored</text>
<path class="ln dash" d="M920,852 L942,852 L942,1436 L920,1436" marker-end="url(#vidar-components-open)"/>
<path class="ln dash" d="M510,852 L490,852"/>
<path class="ln dash" d="M470,1002 L470,2354" marker-end="url(#vidar-components-open)"/>
<path class="ln dash" d="M490,852 L490,2354" marker-end="url(#vidar-components-open)"/>
<path class="ln dash" d="M715,1808 L715,2354" marker-end="url(#vidar-components-open)"/>
<rect class="box" x="60" y="2354" width="860" height="274"/>
<rect class="hdr tbl" x="60.6" y="2354.6" width="858.8" height="57.4"/>
<text x="72" y="2379" class="st" xml:space="preserve">«component»  src/queries/  (12 subject modules)</text>
<text x="72" y="2399" class="mb" xml:space="preserve">queries</text>
<rect class="icon" x="894" y="2364" width="16" height="20"/>
<rect class="icon" x="888" y="2368" width="11" height="4"/>
<rect class="icon" x="888" y="2376" width="11" height="4"/>
<line class="sep" x1="60" y1="2412" x2="920" y2="2412"/>
<text x="72" y="2433" class="m" xml:space="preserve">__init__ re-exports every name of the former queries.py, including classifier.classify_ip</text>
<line class="sep" x1="60" y1="2444" x2="920" y2="2444"/>
<text x="72" y="2465" class="m" xml:space="preserve">_shared       window, filters, grouping</text>
<text x="498" y="2465" class="m" xml:space="preserve">stats        the Overview's numbers</text>
<text x="72" y="2485" class="m" xml:space="preserve">visits        raw rows · insert_visit</text>
<text x="498" y="2485" class="m" xml:space="preserve">analysis     charts, facets, exposure</text>
<text x="72" y="2505" class="m" xml:space="preserve">visitors      per-IP aggregation</text>
<text x="498" y="2505" class="m" xml:space="preserve">intel        ip_intel, classes, state</text>
<text x="72" y="2525" class="m" xml:space="preserve">aggregations  the /visitors groupings</text>
<text x="498" y="2525" class="m" xml:space="preserve">archive_sql  the archive's SQL</text>
<text x="72" y="2545" class="m" xml:space="preserve">sessions      get_sessions</text>
<text x="498" y="2545" class="m" xml:space="preserve">decisions    the /api/decisions feed</text>
<text x="72" y="2565" class="m" xml:space="preserve">baseline      the median ordinary hour</text>
<text x="498" y="2565" class="m" xml:space="preserve">incidents    cross-address incidents</text>
<line class="sep" x1="60" y1="2576" x2="920" y2="2576"/>
<text x="72" y="2597" class="st it" xml:space="preserve">«required»</text>
<text x="72" y="2617" class="m" xml:space="preserve">classifier · sessions · incidents · search · taxonomy · sqltext · validators · config · db.network_of</text>
<path class="ln dash" d="M40,555 L40,2394 L60,2394" marker-end="url(#vidar-components-open)"/>
<rect class="box" x="70" y="2698" width="380" height="274"/>
<rect class="hdr proc" x="70.6" y="2698.6" width="378.8" height="57.4"/>
<text x="82" y="2723" class="st" xml:space="preserve">«component»  src/classifier/</text>
<text x="82" y="2743" class="mb" xml:space="preserve">classifier</text>
<rect class="icon" x="424" y="2708" width="16" height="20"/>
<rect class="icon" x="418" y="2712" width="11" height="4"/>
<rect class="icon" x="418" y="2720" width="11" height="4"/>
<line class="sep" x1="70" y1="2756" x2="450" y2="2756"/>
<text x="82" y="2777" class="st it" xml:space="preserve">«provided»</text>
<text x="82" y="2797" class="m" xml:space="preserve">classify_ip(conn, ip) : str</text>
<text x="82" y="2817" class="m" xml:space="preserve">explain_classification(conn, ip)</text>
<text x="82" y="2837" class="m" xml:space="preserve">CLASSIFIER_VERSION</text>
<line class="sep" x1="70" y1="2848" x2="450" y2="2848"/>
<text x="82" y="2869" class="m" xml:space="preserve">patterns.toml → pack.load() → patterns</text>
<text x="82" y="2889" class="m" xml:space="preserve">_classify_sql() → rules._decide()</text>
<text x="82" y="2909" class="st" xml:space="preserve">runs its evidence query on the given conn</text>
<line class="sep" x1="70" y1="2920" x2="450" y2="2920"/>
<text x="82" y="2941" class="st it" xml:space="preserve">«required»</text>
<text x="82" y="2961" class="m" xml:space="preserve">config · models · sqltext</text>
<rect class="box" x="510" y="2698" width="410" height="162"/>
<rect class="hdr tbl" x="510.6" y="2698.6" width="408.8" height="57.4"/>
<text x="522" y="2723" class="st" xml:space="preserve">«component»  src/db.py</text>
<text x="522" y="2743" class="mb" xml:space="preserve">db</text>
<rect class="icon" x="894" y="2708" width="16" height="20"/>
<rect class="icon" x="888" y="2712" width="11" height="4"/>
<rect class="icon" x="888" y="2720" width="11" height="4"/>
<line class="sep" x1="510" y1="2756" x2="920" y2="2756"/>
<text x="522" y="2777" class="st it" xml:space="preserve">«provided»</text>
<text x="522" y="2797" class="m" xml:space="preserve">get_conn() · run_db(work, *args)</text>
<text x="522" y="2817" class="m" xml:space="preserve">init_db() · vacuum() · network_of(ip)</text>
<line class="sep" x1="510" y1="2828" x2="920" y2="2828"/>
<text x="522" y="2849" class="m" xml:space="preserve">SCHEMA · INDEXES · idempotent migrations</text>
<path class="ln dash" d="M260,2628 L260,2698" marker-end="url(#vidar-components-open)"/>
<path class="ln dash" d="M715,2628 L715,2698" marker-end="url(#vidar-components-open)"/>
<rect class="box" x="510" y="2910" width="410" height="90"/>
<rect class="hdr tbl" x="510.6" y="2910.6" width="408.8" height="57.4"/>
<text x="522" y="2935" class="st" xml:space="preserve">«artifact»</text>
<text x="522" y="2955" class="mb" xml:space="preserve">/data/vidar.db</text>
<path class="icon" d="M888,2924 L888,2938 A10,4 0 0 0 908,2938 L908,2924"/>
<ellipse class="icon" cx="898" cy="2924" rx="10" ry="4"/>
<line class="sep" x1="510" y1="2968" x2="920" y2="2968"/>
<text x="522" y="2989" xml:space="preserve">SQLite in WAL mode (+ -wal, -shm)</text>
<path class="ln" d="M715,2860 L715,2910" marker-end="url(#vidar-components-open)"/>
<rect class="box" x="70" y="3022" width="380" height="150"/>
<rect class="hdr cls" x="70.6" y="3022.6" width="378.8" height="57.4"/>
<text x="82" y="3047" class="st" xml:space="preserve">«component» ×10  src/</text>
<text x="82" y="3067" class="mb" xml:space="preserve">shared modules</text>
<rect class="icon" x="424" y="3032" width="16" height="20"/>
<rect class="icon" x="418" y="3036" width="11" height="4"/>
<rect class="icon" x="418" y="3044" width="11" height="4"/>
<line class="sep" x1="70" y1="3080" x2="450" y2="3080"/>
<text x="82" y="3101" class="m" xml:space="preserve">config · models · taxonomy · search</text>
<text x="82" y="3121" class="m" xml:space="preserve">validators · sqltext · ua_parser</text>
<text x="82" y="3141" class="m" xml:space="preserve">template_filters · preflight · demo</text>
<text x="82" y="3161" class="st" xml:space="preserve">imported widely; those edges are not drawn</text>
<rect class="note" x="30" y="3212" width="900" height="200" rx="6"/>
<text x="46" y="3240" class="sb" xml:space="preserve">Notation</text>
<path class="ln" d="M46,3266 L68,3266"/>
<path class="ln" d="M68,3254 A12,12 0 0 1 68,3278"/>
<circle class="ball" cx="72" cy="3266" r="7"/>
<path class="ln" d="M79,3266 L106,3266"/>
<text x="122" y="3271" xml:space="preserve">provided interface (ball) used through a required one (socket)</text>
<path class="ln dash" d="M46,3286 L106,3286" marker-end="url(#vidar-components-open)"/>
<text x="122" y="3291" xml:space="preserve">«use» dependency; a dot joins several edges that share one line</text>
<path class="ln" d="M46,3306 L106,3306" marker-end="url(#vidar-components-open)"/>
<text x="122" y="3311" xml:space="preserve">reads from, writes to or calls an artifact or external service</text>
<text x="46" y="3331" xml:space="preserve">Abstracted: retention, archive and backup are one box; ten small modules are 'shared modules'.</text>
<text x="46" y="3351" xml:space="preserve">db.get_conn / db.run_db are also used directly by log_processor, enricher, retention and routes.</text>
<text x="46" y="3371" xml:space="preserve">enrich_batch calls the providers one step after another: ip-api, then Shodan for every IP,</text>
<text x="46" y="3391" xml:space="preserve">then reverse DNS for every IP, then the Tor list, then DNSBL. Each step gathers across IPs.</text>
</svg>
